<?xml version="1.0" encoding="utf-8"?>
<!-- Generator: Adobe Illustrator 17.0.2, SVG Export Plug-In . SVG Version: 6.00 Build 0)  -->
<!DOCTYPE svg PUBLIC "-//W3C//DTD SVG 1.1//EN" "http://www.w3.org/Graphics/SVG/1.1/DTD/svg11.dtd">
<svg version="1.1" id="Layer_1" xmlns="http://www.w3.org/2000/svg" xmlns:xlink="http://www.w3.org/1999/xlink" x="0px" y="0px"
	 width="16px" height="16px" viewBox="0 0 16 16" enable-background="new 0 0 16 16" xml:space="preserve">
<linearGradient id="SVGID_1_" gradientUnits="userSpaceOnUse" x1="8" y1="15.3542" x2="8" y2="0.4375">
	<stop  offset="0.0878" style="stop-color:#D6DADE"/>
	<stop  offset="0.6489" style="stop-color:#ABB2BB"/>
	<stop  offset="1" style="stop-color:#A7ACB7"/>
</linearGradient>
<path fill="url(#SVGID_1_)" stroke="#717A87" d="M2.531,0.437v14.917h10.938V5.896V5.479c0,0,0.041-1.335-2.167-3.333
	C9.76,0.75,8.094,0.437,8.094,0.437H2.531z"/>
<path opacity="0.2" fill="none" stroke="#FFFFFF" d="M3.531,1.44v12.852h9.083V6.142V5.783c0,0-0.157,0.225-0.792,0.133
	C10.785,5.766,8,5.667,8,5.667s-0.039-2.278,0-2.75C8.073,2.042,7.448,1.44,8.151,1.44H3.531z"/>
<linearGradient id="SVGID_2_" gradientUnits="userSpaceOnUse" x1="9.6875" y1="0.4375" x2="9.6875" y2="7.25">
	<stop  offset="0.0878" style="stop-color:#D6DADE"/>
	<stop  offset="1" style="stop-color:#ABB2BB"/>
</linearGradient>
<path fill="url(#SVGID_2_)" stroke="#717A87" stroke-width="0.5" d="M5.906,0.437c0,0,2.599,0.52,2.583,1.896
	c-0.015,1.333,0,3.042,0,3.042s2.425-0.042,3.146,0.021c0.958,0.083,1.688,1.125,1.833,1.854L13.24,5.375
	c0,0-0.25-1.531-1.542-2.854c-1.328-1.36-2.229-1.708-3.5-1.896S5.906,0.437,5.906,0.437z"/>
</svg>
