<?xml version="1.0" encoding="utf-8"?>
<!-- Generator: Adobe Illustrator 17.0.2, SVG Export Plug-In . SVG Version: 6.00 Build 0)  -->
<!DOCTYPE svg PUBLIC "-//W3C//DTD SVG 1.1//EN" "http://www.w3.org/Graphics/SVG/1.1/DTD/svg11.dtd">
<svg version="1.1" xmlns="http://www.w3.org/2000/svg" xmlns:xlink="http://www.w3.org/1999/xlink" x="0px" y="0px" width="16px"
	 height="16px" viewBox="0 0 16 16" enable-background="new 0 0 16 16" xml:space="preserve">
<g id="Layer_1">
	
		<linearGradient id="SVGID_1_" gradientUnits="userSpaceOnUse" x1="306" y1="-386.354" x2="306" y2="-371.437" gradientTransform="matrix(1 0 0 -1 -298 -371)">
		<stop  offset="0.0878" style="stop-color:#D6DADE"/>
		<stop  offset="0.6489" style="stop-color:#ABB2BB"/>
		<stop  offset="1" style="stop-color:#A7ACB7"/>
	</linearGradient>
	<path fill="url(#SVGID_1_)" stroke="#717A87" d="M2.531,0.437v14.917h10.938V5.896V5.479c0,0,0.041-1.335-2.167-3.333
		C9.76,0.75,8.094,0.437,8.094,0.437H2.531z"/>
	<path opacity="0.2" fill="none" stroke="#FFFFFF" enable-background="new    " d="M3.531,1.44v12.852h9.083v-8.15V5.783
		c0,0-0.157,0.225-0.792,0.133C10.785,5.766,8,5.667,8,5.667s-0.039-2.278,0-2.75C8.073,2.042,7.448,1.44,8.151,1.44H3.531z"/>
	
		<linearGradient id="SVGID_2_" gradientUnits="userSpaceOnUse" x1="307.687" y1="-371.437" x2="307.687" y2="-378.25" gradientTransform="matrix(1 0 0 -1 -298 -371)">
		<stop  offset="0.0878" style="stop-color:#D6DADE"/>
		<stop  offset="1" style="stop-color:#ABB2BB"/>
	</linearGradient>
	<path fill="url(#SVGID_2_)" stroke="#717A87" stroke-width="0.5" d="M5.906,0.437c0,0,2.599,0.52,2.583,1.896
		c-0.015,1.333,0,3.042,0,3.042s2.425-0.042,3.146,0.021c0.958,0.083,1.688,1.125,1.833,1.854L13.24,5.375
		c0,0-0.25-1.531-1.542-2.854c-1.328-1.36-2.229-1.708-3.5-1.896S5.906,0.437,5.906,0.437z"/>
</g>
<g id="Layer_2">
	<linearGradient id="SVGID_3_" gradientUnits="userSpaceOnUse" x1="4.5" y1="9.0156" x2="10.9688" y2="9.0156">
		<stop  offset="0.0878" style="stop-color:#D6DADE"/>
		<stop  offset="1" style="stop-color:#ABB2BB"/>
	</linearGradient>
	<polygon fill="url(#SVGID_3_)" stroke="#717A87" stroke-width="0.5" points="4.5,7.625 10.375,6.844 10.969,10.344 5.125,11.188 	
		"/>
	<linearGradient id="SVGID_4_" gradientUnits="userSpaceOnUse" x1="8.5342" y1="10.083" x2="11.6175" y2="10.083">
		<stop  offset="0.0878" style="stop-color:#D6DADE"/>
		<stop  offset="1" style="stop-color:#ABB2BB"/>
	</linearGradient>
	<circle fill="url(#SVGID_4_)" stroke="#717A87" stroke-width="0.5" cx="10.076" cy="10.083" r="1.542"/>
	<linearGradient id="SVGID_5_" gradientUnits="userSpaceOnUse" x1="4.9441" y1="11.6247" x2="8.8893" y2="11.6247">
		<stop  offset="0.0878" style="stop-color:#D6DADE"/>
		<stop  offset="1" style="stop-color:#ABB2BB"/>
	</linearGradient>
	<polygon fill="url(#SVGID_5_)" stroke="#717A87" stroke-width="0.5" points="4.944,13.333 6.917,9.916 8.889,13.333 	"/>
</g>
</svg>
